<?xml version="1.0" encoding="UTF-8" standalone="no"?>
<svg
   width="132.004"
   height="132"
   version="1.1"
   id="svg28"
   sodipodi:docname="instagram.svg"
   inkscape:version="1.1.2 (1:1.1+202202050950+0a00cf5339)"
   xmlns:inkscape="http://www.inkscape.org/namespaces/inkscape"
   xmlns:sodipodi="http://sodipodi.sourceforge.net/DTD/sodipodi-0.dtd"
   xmlns:xlink="http://www.w3.org/1999/xlink"
   xmlns="http://www.w3.org/2000/svg"
   xmlns:svg="http://www.w3.org/2000/svg">
  <sodipodi:namedview
     id="namedview30"
     pagecolor="#ffffff"
     bordercolor="#666666"
     borderopacity="1.0"
     inkscape:pageshadow="2"
     inkscape:pageopacity="0.0"
     inkscape:pagecheckerboard="true"
     showgrid="false"
     inkscape:zoom="6.3484848"
     inkscape:cx="66"
     inkscape:cy="66.078759"
     inkscape:window-width="1920"
     inkscape:window-height="1025"
     inkscape:window-x="0"
     inkscape:window-y="0"
     inkscape:window-maximized="1"
     inkscape:current-layer="layer4" />
  <defs
     id="defs20">
    <linearGradient
       id="b">
      <stop
         offset="0"
         stop-color="#3771c8"
         id="stop2" />
      <stop
         stop-color="#3771c8"
         offset=".128"
         id="stop4" />
      <stop
         offset="1"
         stop-color="#60f"
         stop-opacity="0"
         id="stop6" />
    </linearGradient>
    <linearGradient
       id="a">
      <stop
         offset="0"
         stop-color="#fd5"
         id="stop9" />
      <stop
         offset=".1"
         stop-color="#fd5"
         id="stop11" />
      <stop
         offset=".5"
         stop-color="#ff543e"
         id="stop13" />
      <stop
         offset="1"
         stop-color="#c837ab"
         id="stop15" />
    </linearGradient>
    <radialGradient
       id="c"
       cx="158.429"
       cy="578.088"
       r="65"
       xlink:href="#a"
       gradientUnits="userSpaceOnUse"
       gradientTransform="matrix(0,-1.98198,1.8439,0,-1030.398,455.004)"
       fx="158.429"
       fy="578.088" />
    <radialGradient
       id="d"
       cx="147.694"
       cy="473.455"
       r="65"
       xlink:href="#b"
       gradientUnits="userSpaceOnUse"
       gradientTransform="matrix(0.17394,0.86872,-3.5818,0.71718,1649.352,-457.493)"
       fx="147.694"
       fy="473.455" />
  </defs>
  <g
     inkscape:groupmode="layer"
     id="layer4"
     inkscape:label="Layer 3">
    <path
       id="path22"
       style="fill:url(#c)"
       d="M 66.033203 1 C 38.891203 1 30.953156 1.02825 29.410156 1.15625 C 23.840156 1.61925 20.375609 2.4969531 16.599609 4.3769531 C 13.689609 5.8219531 11.393906 7.49575 9.1289062 9.84375 C 5.0039062 14.12575 2.5046094 19.39425 1.5996094 25.65625 C 1.1596094 28.69625 1.0318594 29.31575 1.0058594 44.84375 C 0.99585938 50.01975 1.0058594 56.83175 1.0058594 65.96875 C 1.0058594 93.08875 1.0340625 101.01859 1.1640625 102.55859 C 1.6140625 107.97859 2.465625 111.38914 4.265625 115.11914 C 7.705625 122.25914 14.275625 127.61914 22.015625 129.61914 C 24.695625 130.30914 27.655078 130.68914 31.455078 130.86914 C 33.065078 130.93914 49.474531 130.98828 65.894531 130.98828 C 82.314531 130.98828 98.734688 130.96867 100.30469 130.88867 C 104.70469 130.68167 107.26094 130.33938 110.08594 129.60938 C 117.87594 127.59937 124.32594 122.31812 127.83594 115.07812 C 129.60094 111.43812 130.49539 107.89872 130.90039 102.76172 C 130.98839 101.64172 131.02539 83.784172 131.02539 65.951172 C 131.02539 48.115172 130.98448 30.291875 130.89648 29.171875 C 130.48648 23.951875 129.59153 20.442422 127.76953 16.732422 C 126.27453 13.695422 124.61508 11.426422 122.20508 9.1074219 C 117.90408 4.9994219 112.64495 2.4997031 106.37695 1.5957031 C 103.33995 1.1567031 102.73336 1.027 87.193359 1 L 66.033203 1 z M 65.988281 18 L 66.003906 18 C 79.022144 18.000069 80.662406 18.056204 85.779297 18.289062 C 90.889297 18.523063 94.379453 19.332531 97.439453 20.519531 C 100.59945 21.744531 103.26945 23.384687 105.93945 26.054688 C 108.60945 28.722687 110.24852 31.401594 111.47852 34.558594 C 112.65852 37.610594 113.46898 41.097031 113.70898 46.207031 C 113.93898 51.327031 113.99805 52.964 113.99805 66 C 113.99805 79.036 113.93898 80.667109 113.70898 85.787109 C 113.46898 90.895109 112.65852 94.3845 111.47852 97.4375 C 110.24852 100.5935 108.60945 103.27145 105.93945 105.93945 C 103.27245 108.60945 100.59741 110.25447 97.441406 111.48047 C 94.387406 112.66747 90.895156 113.47694 85.785156 113.71094 C 80.665156 113.94394 79.035047 114 65.998047 114 C 52.963047 114 51.327031 113.94394 46.207031 113.71094 C 41.098031 113.47694 37.610641 112.66747 34.556641 111.48047 C 31.401641 110.25447 28.723641 108.60945 26.056641 105.93945 C 23.387641 103.27145 21.746531 100.5945 20.519531 97.4375 C 19.333531 94.3855 18.524062 90.897109 18.289062 85.787109 C 18.057063 80.667109 18 79.036 18 66 C 18 52.964 18.060062 51.327031 18.289062 46.207031 C 18.519063 41.099031 19.329531 37.609641 20.519531 34.556641 C 21.749531 31.400641 23.388594 28.722687 26.058594 26.054688 C 28.726594 23.385688 31.4055 21.745531 34.5625 20.519531 C 37.6145 19.332531 41.102891 18.523063 46.212891 18.289062 C 51.329782 18.056204 52.974029 18.000069 65.988281 18 z M 61.697266 26.638672 C 52.751266 26.648672 51.035422 26.708203 46.607422 26.908203 C 41.927422 27.123203 39.387313 27.9025 37.695312 28.5625 C 35.455313 29.4345 33.855781 30.474297 32.175781 32.154297 C 30.495781 33.834297 29.452031 35.435781 28.582031 37.675781 C 27.925031 39.367781 27.143687 41.907891 26.929688 46.587891 C 26.699687 51.647891 26.654297 53.158563 26.654297 65.976562 C 26.654297 78.794562 26.699687 80.315 26.929688 85.375 C 27.142687 90.055 27.925031 92.595156 28.582031 94.285156 C 29.454031 96.526156 30.495781 98.122734 32.175781 99.802734 C 33.855781 101.48273 35.455312 102.52258 37.695312 103.39258 C 39.388312 104.04958 41.927422 104.83088 46.607422 105.04688 C 51.667422 105.27688 53.186906 105.32617 66.003906 105.32617 C 78.819906 105.32617 80.340391 105.27688 85.400391 105.04688 C 90.080391 104.83288 92.6225 104.05258 94.3125 103.39258 C 96.5535 102.52258 98.148125 101.48273 99.828125 99.802734 C 101.50813 98.123734 102.54992 96.529062 103.41992 94.289062 C 104.07692 92.599062 104.85827 90.058906 105.07227 85.378906 C 105.30227 80.318906 105.35352 78.798281 105.35352 65.988281 C 105.35352 53.178281 105.30227 51.659609 105.07227 46.599609 C 104.85927 41.919609 104.07692 39.379453 103.41992 37.689453 C 102.54792 35.449453 101.50813 33.849922 99.828125 32.169922 C 98.149125 30.489922 96.5525 29.448125 94.3125 28.578125 C 92.6205 27.921125 90.080391 27.139781 85.400391 26.925781 C 80.339391 26.695781 78.819906 26.650391 66.003906 26.650391 C 64.401906 26.650391 62.975266 26.648391 61.697266 26.650391 L 61.697266 26.638672 z M 91.626953 34.617188 C 94.806953 34.617187 97.386719 37.198906 97.386719 40.378906 C 97.386719 43.558906 94.806953 46.138672 91.626953 46.138672 C 88.446953 46.138672 85.865234 43.558906 85.865234 40.378906 C 85.865234 37.197906 88.446953 34.619141 91.626953 34.619141 L 91.626953 34.617188 z M 66.003906 41.349609 C 79.616906 41.349609 90.650391 52.387 90.650391 66 C 90.650391 79.613 79.616906 90.644531 66.003906 90.644531 C 52.390906 90.644531 41.353516 79.613 41.353516 66 C 41.353516 52.387 52.390906 41.349609 66.003906 41.349609 z M 66.003906 50 C 57.166906 50 50.003906 57.163 50.003906 66 C 50.003906 74.836 57.166906 82 66.003906 82 C 74.839906 82 82.003906 74.836 82.003906 66 C 82.003906 57.163 74.839906 50 66.003906 50 z " />
  </g>
  <g
     inkscape:groupmode="layer"
     id="layer3"
     inkscape:label="Layer 2">
    <path
       id="path24"
       style="fill:url(#d)"
       d="M 66.033203 1 C 38.891203 1 30.953156 1.02825 29.410156 1.15625 C 23.840156 1.61925 20.375609 2.4969531 16.599609 4.3769531 C 13.689609 5.8219531 11.393906 7.49575 9.1289062 9.84375 C 5.0039062 14.12575 2.5046094 19.39425 1.5996094 25.65625 C 1.1596094 28.69625 1.0318594 29.31575 1.0058594 44.84375 C 0.99585938 50.01975 1.0058594 56.83175 1.0058594 65.96875 C 1.0058594 93.08875 1.0340625 101.01859 1.1640625 102.55859 C 1.6140625 107.97859 2.465625 111.38914 4.265625 115.11914 C 7.705625 122.25914 14.275625 127.61914 22.015625 129.61914 C 24.695625 130.30914 27.655078 130.68914 31.455078 130.86914 C 33.065078 130.93914 49.474531 130.98828 65.894531 130.98828 C 82.314531 130.98828 98.734688 130.96867 100.30469 130.88867 C 104.70469 130.68167 107.26094 130.33938 110.08594 129.60938 C 117.87594 127.59937 124.32594 122.31812 127.83594 115.07812 C 129.60094 111.43812 130.49539 107.89872 130.90039 102.76172 C 130.98839 101.64172 131.02539 83.784172 131.02539 65.951172 C 131.02539 48.115172 130.98448 30.291875 130.89648 29.171875 C 130.48648 23.951875 129.59153 20.442422 127.76953 16.732422 C 126.27453 13.695422 124.61508 11.426422 122.20508 9.1074219 C 117.90408 4.9994219 112.64495 2.4997031 106.37695 1.5957031 C 103.33995 1.1567031 102.73336 1.027 87.193359 1 L 66.033203 1 z M 65.990234 18.078125 L 66.003906 18.078125 C 79.024863 18.078186 80.662017 18.136264 85.779297 18.369141 C 90.889297 18.603141 94.379453 19.412609 97.439453 20.599609 C 100.59945 21.824609 103.26945 23.462812 105.93945 26.132812 C 108.60945 28.800812 110.25047 31.479719 111.48047 34.636719 C 112.66047 37.688719 113.46898 41.177109 113.70898 46.287109 C 113.93898 51.407109 114 53.042125 114 66.078125 C 114 79.114125 113.93898 80.747187 113.70898 85.867188 C 113.46898 90.975188 112.66047 94.464578 111.48047 97.517578 C 110.25047 100.67358 108.60945 103.35153 105.93945 106.01953 C 103.27245 108.68953 100.59936 110.33259 97.443359 111.55859 C 94.389359 112.74559 90.897109 113.55506 85.787109 113.78906 C 80.667109 114.02206 79.035047 114.07812 65.998047 114.07812 C 52.963047 114.07812 51.328984 114.02206 46.208984 113.78906 C 41.099984 113.55506 37.610641 112.74559 34.556641 111.55859 C 31.401641 110.33259 28.723641 108.68953 26.056641 106.01953 C 23.387641 103.35153 21.746531 100.67263 20.519531 97.515625 C 19.333531 94.463625 18.526016 90.975234 18.291016 85.865234 C 18.059016 80.745234 18 79.114125 18 66.078125 C 18 53.042125 18.060063 51.405156 18.289062 46.285156 C 18.519063 41.177156 19.329531 37.689719 20.519531 34.636719 C 21.749531 31.480719 23.388594 28.800812 26.058594 26.132812 C 28.726594 23.463813 31.4055 21.825609 34.5625 20.599609 C 37.6145 19.412609 41.102891 18.603141 46.212891 18.369141 C 51.33017 18.136264 52.973268 18.078186 65.990234 18.078125 z M 61.699219 26.716797 C 52.753219 26.726797 51.037375 26.786328 46.609375 26.986328 C 41.929375 27.201328 39.387313 27.982578 37.695312 28.642578 C 35.455313 29.514578 33.855781 30.554375 32.175781 32.234375 C 30.495781 33.914375 29.453984 35.513906 28.583984 37.753906 C 27.926984 39.445906 27.143687 41.986016 26.929688 46.666016 C 26.699687 51.726016 26.654297 53.238641 26.654297 66.056641 C 26.654297 78.874641 26.699687 80.393125 26.929688 85.453125 C 27.142687 90.133125 27.926984 92.673281 28.583984 94.363281 C 29.455984 96.604281 30.495781 98.200859 32.175781 99.880859 C 33.855781 101.56086 35.455312 102.6007 37.695312 103.4707 C 39.388312 104.1277 41.929375 104.909 46.609375 105.125 C 51.669375 105.355 53.186906 105.40625 66.003906 105.40625 C 78.819906 105.40625 80.340391 105.355 85.400391 105.125 C 90.080391 104.911 92.6225 104.13266 94.3125 103.47266 C 96.5535 102.60266 98.148125 101.56086 99.828125 99.880859 C 101.50813 98.201859 102.54992 96.607187 103.41992 94.367188 C 104.07692 92.677187 104.86022 90.137031 105.07422 85.457031 C 105.30422 80.397031 105.35352 78.878359 105.35352 66.068359 C 105.35352 53.258359 105.30422 51.737734 105.07422 46.677734 C 104.86122 41.997734 104.07692 39.457578 103.41992 37.767578 C 102.54792 35.527578 101.50813 33.928047 99.828125 32.248047 C 98.149125 30.568047 96.5525 29.528203 94.3125 28.658203 C 92.6205 28.001203 90.080391 27.217906 85.400391 27.003906 C 80.339391 26.773906 78.819906 26.728516 66.003906 26.728516 C 64.401906 26.728516 62.977219 26.726516 61.699219 26.728516 L 61.699219 26.716797 z M 91.626953 34.697266 C 94.806953 34.697266 97.386719 37.277031 97.386719 40.457031 C 97.386719 43.637031 94.806953 46.216797 91.626953 46.216797 C 88.446953 46.216797 85.867188 43.637031 85.867188 40.457031 C 85.867188 37.276031 88.446953 34.699219 91.626953 34.699219 L 91.626953 34.697266 z M 66.003906 41.429688 C 79.616906 41.429687 90.650391 52.465125 90.650391 66.078125 C 90.650391 79.691125 79.616906 90.724609 66.003906 90.724609 C 52.390906 90.724609 41.355469 79.691125 41.355469 66.078125 C 41.355469 52.465125 52.390906 41.429688 66.003906 41.429688 z M 66.003906 50.078125 C 57.166906 50.078125 50.003906 57.241125 50.003906 66.078125 C 50.003906 74.914125 57.166906 82.078125 66.003906 82.078125 C 74.839906 82.078125 82.003906 74.914125 82.003906 66.078125 C 82.003906 57.241125 74.839906 50.078125 66.003906 50.078125 z " />
  </g>
  <g
     inkscape:groupmode="layer"
     id="layer2"
     inkscape:label="Layer 1"
     style="display:inline" />
  <g
     inkscape:groupmode="layer"
     id="g2173"
     inkscape:label="Layer 1 copy" />
</svg>
