<?xml version="1.0" encoding="UTF-8" standalone="no"?>
<!-- Created with Inkscape (http://www.inkscape.org/) -->

<svg
   version="1.1"
   id="svg2"
   width="835"
   height="826"
   viewBox="0 0 835 826"
   sodipodi:docname="previous.svg"
   inkscape:version="1.1.2 (1:1.1+202202050950+0a00cf5339)"
   xmlns:inkscape="http://www.inkscape.org/namespaces/inkscape"
   xmlns:sodipodi="http://sodipodi.sourceforge.net/DTD/sodipodi-0.dtd"
   xmlns="http://www.w3.org/2000/svg"
   xmlns:svg="http://www.w3.org/2000/svg">
  <defs
     id="defs6" />
  <sodipodi:namedview
     id="namedview4"
     pagecolor="#ffffff"
     bordercolor="#666666"
     borderopacity="1.0"
     inkscape:pageshadow="2"
     inkscape:pageopacity="0.0"
     inkscape:pagecheckerboard="true"
     showgrid="false"
     inkscape:zoom="1.0145278"
     inkscape:cx="137.50239"
     inkscape:cy="452.92005"
     inkscape:window-width="1920"
     inkscape:window-height="1025"
     inkscape:window-x="0"
     inkscape:window-y="0"
     inkscape:window-maximized="1"
     inkscape:current-layer="g8" />
  <g
     inkscape:groupmode="layer"
     inkscape:label="Image"
     id="g8">
    <path
       style="fill:#02421b;fill-opacity:0.491033"
       d="m 441.63044,3.9028711 c 0.232,0.23205 6.4945,0.90771 13.9167,1.50148 7.4221,0.59376 16.1947,1.53781 19.4947,2.09787 23.0751,3.9162299 28.5911,5.0061699 40.50002,8.0027699 13.5505,3.40965 32.35878,9.17623 36.23643,11.11001 0.95504,0.47628 2.23703,0.86596 2.84887,0.86596 0.61184,0 2.53045,0.61388 4.26357,1.36418 1.73312,0.7503 5.17613,2.15417 7.65113,3.11972 7.62568,2.97491 8.26614,3.24845 16.5,7.04702 14.9795,6.91057 31.82424,15.60853 38.23013,19.74052 2.32657,1.50071 4.68907,2.72856 5.25,2.72856 0.56093,0 1.01987,0.40122 1.01987,0.89159 0,0.49038 1.125,1.17395 2.5,1.51905 1.375,0.34511 2.5,1.06889 2.5,1.60841 0,0.53952 0.675,0.98095 1.5,0.98095 0.825,0 1.5,0.41968 1.5,0.93261 0,0.51294 0.97793,1.243 2.17319,1.62236 1.19525,0.37936 2.65775,1.0975 3.25,1.59586 3.55164,2.98866 17.75437,12.84917 18.50747,12.84917 0.49647,0 1.05267,0.37843 1.23601,0.84095 0.18333,0.46252 2.35833,2.38501 4.83333,4.27219 5.11883,3.90311 8.57064,6.71167 10.9222,8.88686 0.89189,0.825 4.31176,3.749999 7.59971,6.499999 7.64346,6.39289 34.74094,33.52839 39.97658,40.03265 4.81706,5.98427 7.62722,9.34353 9.09647,10.87391 1.89344,1.97221 21.40504,28.50183 21.40504,29.1041 0,0.31557 0.47119,1.11726 1.0471,1.78155 1.99506,2.30121 7.9529,11.88653 7.9529,12.79507 0,0.502 0.45,0.91272 1,0.91272 0.55,0 1,0.44207 1,0.98239 0,0.54031 1.8,3.92324 4,7.51761 2.2,3.59437 4,6.94516 4,7.44618 0,0.50103 0.5625,1.51939 1.25,2.26303 1.3049,1.41144 7.64279,13.98526 12.24389,24.29079 1.47334,3.3 3.28863,7.35 4.03396,9 3.03554,6.71997 6.79077,16.57613 10.0966,26.5 1.92376,5.775 3.88184,11.4 4.35129,12.5 0.46945,1.1 1.30183,3.8 1.84974,6 0.54791,2.2 1.72302,6.475 2.61137,9.5 0.88834,3.025 1.86297,7.3 2.16584,9.5 0.30287,2.2 0.95988,4.9 1.46004,6 0.50016,1.1 1.31957,4.475 1.82092,7.5 0.50134,3.025 1.81978,10.9 2.92986,17.5 3.65979,21.75927 5.23419,41.86361 5.20978,66.52623 -0.0128,12.93943 -0.49,27.24839 -1.06044,31.79769 -0.57044,4.5493 -1.4491,12.18749 -1.95259,16.97377 -1.3975,13.28503 -5.01982,33.51929 -8.45012,47.20231 -0.89624,3.575 -1.87281,7.625 -2.17016,9 -0.29735,1.375 -0.88531,3.4 -1.30658,4.5 -1.29393,3.37866 -7.01906,21.83392 -7.68079,24.75945 -0.3433,1.5177 -1.02432,3.00675 -1.51339,3.30902 -0.48907,0.30226 -0.88922,1.38654 -0.88922,2.40951 0,1.02297 -0.64747,3.13391 -1.43882,4.69098 -1.99304,3.92151 -4.56118,9.99857 -4.56118,10.79321 0,0.36296 -1.8,4.48406 -4,9.158 -2.2,4.67395 -4,9.10898 -4,9.85563 0,0.74664 -0.3375,1.50753 -0.75,1.69087 -0.4125,0.18333 -2.31015,3.48333 -4.21701,7.33333 -1.90685,3.85 -5.39435,10.20699 -7.75,14.12664 -2.35564,3.91965 -4.28299,7.38116 -4.28299,7.69225 0,0.61031 -8.09396,13.85473 -8.97196,14.68111 -0.29218,0.275 -1.16499,1.7299 -1.93958,3.23312 -0.7746,1.50322 -2.23638,3.6219 -3.24841,4.70819 -1.01203,1.08628 -1.84005,2.44388 -1.84005,3.01688 0,0.57299 -0.3375,1.05391 -0.75,1.06871 -0.4125,0.0148 -1.85297,1.81479 -3.20103,4 -1.34807,2.1852 -2.81057,3.9731 -3.25,3.9731 -0.43944,0 -0.79897,0.57471 -0.79897,1.27714 0,0.70243 -1.35,2.7552 -3,4.56172 -1.65,1.80652 -3,3.6693 -3,4.13952 0,0.47023 -0.3375,1.00495 -0.75,1.18829 -0.4125,0.18333 -4.28558,4.60833 -8.60685,9.83333 -10.23625,12.37702 -42.19134,44.99999 -44.07873,44.99999 -0.31043,0 -2.36442,1.8 -4.56442,4.00001 -2.2,2.2 -4.3375,4.00209 -4.75,4.00463 -0.4125,0.002 -2.1,1.24724 -3.75,2.76598 -2.82061,2.59624 -10.86136,8.70893 -23.5,17.86505 -4.40206,3.18909 -16.40733,10.70023 -31,19.39524 -0.825,0.49157 -3.525,1.9228 -6,3.18051 -2.475,1.25771 -4.725,2.52379 -5,2.81351 -1.12187,1.18192 -23.11342,11.50694 -34,15.96299 -3.025,1.23818 -6.91801,2.87243 -8.65113,3.63167 -1.73312,0.75923 -3.78062,1.38042 -4.55,1.38042 -0.76938,0 -1.82637,0.39216 -2.34887,0.87146 -0.5225,0.4793 -3.65,1.67813 -6.95,2.66408 -3.3,0.98595 -6.49796,2.17033 -7.10657,2.63196 -0.60861,0.46163 -3.08361,1.26571 -5.5,1.78684 -2.41639,0.52114 -6.86843,1.68935 -9.89343,2.59602 -11.19977,3.35686 -27.01132,7.05748 -36.00002,8.42561 -3.025,0.46042 -8.425,1.29302 -12,1.85021 -22.4576,3.5002 -25.3877,3.67382 -62,3.67382 -36.4062,0 -41.0332,-0.27147 -62,-3.63768 -3.575,-0.57397 -7.85,-1.23848 -9.5,-1.4767 -9.5862,-1.38399 -35.5499,-7.38933 -44.5,-10.29273 -1.375,-0.44605 -5.2,-1.63169 -8.5,-2.63475 -3.3,-1.00307 -6.45,-2.13953 -7,-2.52548 -0.55,-0.38594 -2.575,-1.03064 -4.5,-1.43266 -1.925,-0.40202 -3.95,-1.05568 -4.5,-1.45259 -0.55,-0.39691 -3.925,-1.77277 -7.5,-3.05748 -3.575,-1.28471 -8.975,-3.42793 -12,-4.76271 -7.7622,-3.42508 -22.1237,-10.13872 -24.5,-11.45314 -1.1,-0.60845 -4.925,-2.636 -8.5,-4.50566 -8.7395,-4.57062 -14.4185,-7.86008 -21,-12.16391 -3.025,-1.97815 -5.95,-3.82517 -6.5,-4.1045 -2.2221,-1.12855 -12.3644,-8.00504 -13.637,-9.2459 -0.7497,-0.73093 -2.938,-2.2948 -4.863,-3.47526 -1.925,-1.18047 -4.4,-2.97503 -5.5,-3.98792 -1.1,-1.01289 -4.925,-4.06815 -8.5,-6.78947 -3.575,-2.72132 -8.075,-6.38583 -10,-8.14336 -1.925,-1.75753 -4.85,-4.23028 -6.5,-5.49501 -4.5037,-3.45209 -34.4572,-33.63775 -39.0197,-39.32214 -2.1891,-2.72748 -4.65531,-5.70019 -5.48031,-6.60602 -0.825,-0.90583 -2.624998,-3.12286 -3.999998,-4.92674 -1.375,-1.80388 -3.6393,-4.68118 -5.0318,-6.39399 -7.1831,-8.83544 -23.9038,-33.44626 -27.9333,-41.1142 -0.578,-1.1 -2.3741,-4.25 -3.9912,-7 -1.6172,-2.75 -4.6511,-8.375 -6.742,-12.5 -2.0909,-4.125 -4.1392,-7.65 -4.5517,-7.83333 -0.4125,-0.18334 -0.75,-0.79033 -0.75,-1.34887 0,-1.00933 -0.5713,-2.36955 -6.2233,-14.8178 -1.6232,-3.575 -3.3577,-7.4 -3.8544,-8.5 -1.3793,-3.05441 -5.8607,-15.28299 -8.0623,-22 -1.0817,-3.3 -2.3354,-6.68977 -2.7862,-7.53282 -0.4507,-0.84306 -1.1589,-3.07829 -1.5738,-4.96718 -0.4149,-1.88889 -1.0939,-4.12412 -1.509,-4.96718 -0.8233,-1.67211 -1.6458,-4.84627 -6.4863,-25.03282 -5.7135,-23.82742 -10.5213001,-65.41027 -10.5213001,-91 0,-18.34213 3.6591001,-59.70818 6.0592001,-68.5 0.4505,-1.65 1.1023,-5.475 1.4485,-8.5 0.3463,-3.025 1.0146,-6.625 1.4852,-8 0.4706,-1.375 1.6085,-6.1 2.5287,-10.5 0.9202,-4.4 2.308,-9.81504 3.084,-12.03343 0.7761,-2.21839 1.411,-4.812 1.411,-5.76357 0,-0.95158 0.4182,-2.51153 0.9292,-3.46657 0.5111,-0.95504 1.9457,-5.11143 3.188,-9.23643 1.2423,-4.125 2.6241,-7.9275 3.0708,-8.45 0.4466,-0.5225 0.812,-1.74473 0.812,-2.71607 0,-0.97134 0.7374,-3.46884 1.6386,-5.55 2.4624,-5.68619 3.1178,-7.29292 5.3862,-13.20391 4.5924,-11.96674 19.9306,-42.67614 26.6265,-53.31015 1.2918,-2.05157 2.3487,-4.15157 2.3487,-4.66666 0,-0.5151 0.3375,-1.08654 0.75,-1.26988 0.8863,-0.39389 5.25,-6.4907 5.25,-7.33504 0,-0.32049 0.4506,-1.12621 1.0014,-1.7905 3.1895,-3.84682 9.9986,-13.8649 9.9986,-14.7106 0,-0.54845 0.3375,-1.00026 0.75,-1.00402 0.4125,-0.004 1.875,-1.68494 3.25,-3.73597 2.4932,-3.71892 4.0589,-5.68971 9.234,-11.62276 1.503798,-1.72394 2.741298,-3.4399 2.749998,-3.81324 0.01,-0.37334 1.4831,-2.23439 3.2763,-4.13566 1.79311,-1.90128 4.45141,-4.89471 5.90731,-6.65208 9.4621,-11.42164 37.8105,-38.45385 50.8704,-48.508579 3.5541,-2.73632 7.0409,-5.53305 7.7484,-6.21496 0.7075,-0.68191 2.62,-2.02763 4.25,-2.99049 1.63,-0.96285 2.9636,-2.10362 2.9636,-2.53504 0,-0.43141 0.675,-0.78439 1.5,-0.78439 0.825,0 1.5,-0.34377 1.5,-0.76393 0,-0.42016 1.8,-1.8764 4,-3.23607 2.2,-1.35967 4,-2.76342 4,-3.11944 0,-0.35601 0.7875,-0.91172 1.75,-1.2349 2.1018,-0.7057 4.5176,-2.22253 9.39,-5.89566 2.0063,-1.5125 3.9047,-2.75 4.2188,-2.75 0.314,0 4.5475,-2.41132 9.4078,-5.35848 8.3127,-5.04059 41.0537,-21.64152 42.6822,-21.64152 0.7855,0 6.8153,-2.51615 9.7885,-4.08462 4.104,-2.16497 36.5196,-12.91538 38.9437,-12.91538 0.9355,0 1.9791,-0.45 2.319,-1 0.3399,-0.55 1.4398,-1 2.4442,-1 1.0044,0 4.0153,-0.65022 6.691,-1.44493 9.0287,-2.68167 30.7,-6.8467099 46.3648,-8.9109499 21.89,-2.88455 33.6936,-3.64412 56.6294,-3.64412 12.6705,0 23.2271,0.18986 23.4592,0.42191 z M 516.31303,156.69757 c -5.5152,2.84928 -234.34489,231.86378 -239.58989,239.78339 -3.5069,5.29534 -3.6432,5.8349 -3.6619,14.5 -0.016,7.60137 0.3531,9.69931 2.3773,13.5 1.6287,3.05789 39.9246,42.07057 119.5,121.73658 92.7696,92.87521 118.18113,117.78621 122.29019,119.88158 4.30963,2.19766 6.52011,2.645 13.06988,2.645 4.33566,0 8.97657,-0.55267 10.31313,-1.22816 5.15677,-2.60618 11.92634,-7.59191 11.92819,-8.785 10e-4,-0.6875 0.3496,-1.25 0.77453,-1.25 0.86198,0 3.32464,-4.49972 5.67658,-10.37212 2.60229,-6.49746 1.65281,-13.55191 -3.09538,-22.99815 -0.86524,-1.72135 -48.43632,-50.04946 -105.71352,-107.3958 -57.2771,-57.34634 -104.2855,-104.69452 -104.463,-105.21818 -0.1775,-0.52366 45.7225,-47.03439 102,-103.35717 56.2775,-56.32279 103.23138,-103.47461 104.34197,-104.78183 3.84341,-4.52386 6.27806,-9.4013 7.5237,-15.07252 3.13733,-14.2838 -7.58829,-30.79563 -22.04295,-33.93459 -5.82686,-1.26535 -16.52627,-0.0825 -21.22883,2.34697 z"
       id="path12" />
  </g>
</svg>
